<svg xmlns="http://www.w3.org/2000/svg" width="24" height="24" viewBox="0 0 24 24"><defs><style>.a{fill:none;}.b{fill:#2164f4;}</style></defs><path class="a" d="M24,24H0V0H24Zm0,0H0V0H24Z"/><path class="b" d="M11.222,20.556l5.54-5.54a2,2,0,0,0,.58-1.41V3.616a2.006,2.006,0,0,0-2-2h-9A2.014,2.014,0,0,0,4.5,2.826l-3.26,7.61A3,3,0,0,0,4,14.616h5.65L8.7,19.2a1.508,1.508,0,0,0,.41,1.37,1.488,1.488,0,0,0,2.11-.01Zm10.12-18.94a2.006,2.006,0,0,0-2,2v8a2,2,0,1,0,4,0v-8A2.006,2.006,0,0,0,21.342,1.616Z" transform="translate(-0.342 1.384)"/></svg>