<svg xmlns="http://www.w3.org/2000/svg" width="30" height="29" viewBox="0 0 30 29"><defs><style>.a{fill:#fff;stroke:#b0bec5;}.b{fill:#33475b;}</style></defs><g transform="translate(0.038 0.025)"><ellipse class="a" cx="14.5" cy="14" rx="14.5" ry="14" transform="translate(0.462 0.475)"/><g transform="translate(7.89 7.209)"><path class="b" d="M41.253,32.279v5.245H38.212V32.631c0-1.229-.439-2.068-1.54-2.068a1.663,1.663,0,0,0-1.56,1.112,2.081,2.081,0,0,0-.1.741v5.108H31.97s.041-8.288,0-9.146h3.041v1.3c-.006.01-.015.02-.02.03h.02v-.03a3.019,3.019,0,0,1,2.741-1.511c2,0,3.5,1.307,3.5,4.116Zm-12.464-8.31a1.585,1.585,0,1,0-.04,3.161h.02a1.585,1.585,0,1,0,.02-3.161Zm-1.54,13.555h3.04V28.378h-3.04Z" transform="translate(-27.068 -23.969)"/></g></g></svg>