<?xml version="1.0" encoding="utf-8"?>
<!-- Generator: Adobe Illustrator 23.1.0, SVG Export Plug-In . SVG Version: 6.00 Build 0)  -->
<svg version="1.1" id="Group_2063" xmlns="http://www.w3.org/2000/svg" xmlns:xlink="http://www.w3.org/1999/xlink" x="0px" y="0px"
	 viewBox="0 0 12.2 15.8" style="enable-background:new 0 0 12.2 15.8;" xml:space="preserve">
<style type="text/css">
	.st0{fill:#3B9BFF;}
</style>
<path id="Path_1656" class="st0" d="M12.2,2.9c-0.1-0.3,0-0.1-3.3-2.7C8.6-0.1,8.9,0,0.6,0C0.3,0,0,0.3,0,0.7v14.5
	c0,0.3,0.3,0.6,0.6,0.6h11c0.3,0,0.6-0.3,0.6-0.6V2.9z M9.2,1.9l0.6,0.4v0.1H9.2V1.9z M1.3,14.6V1.3h6.6v1.8c0,0.3,0.3,0.6,0.6,0.6
	H11v11H1.3V14.6z"/>
<path id="Path_1657" class="st0" d="M9.2,7.3H3.1c-0.3,0-0.6,0.2-0.6,0.6c0,0,0,0,0,0.1c0,0.3,0.3,0.6,0.6,0.6h6.2
	c0.3,0,0.6-0.3,0.6-0.6C9.9,7.6,9.5,7.3,9.2,7.3z"/>
<path id="Path_1658" class="st0" d="M9.2,11H3.1c-0.3,0-0.6,0.2-0.6,0.6c0,0,0,0,0,0.1c0,0.3,0.3,0.6,0.6,0.6h6.2
	c0.3,0,0.6-0.3,0.6-0.6C9.8,11.3,9.5,11,9.2,11z"/>
<path id="Path_1659" class="st0" d="M3.1,6.1h2.4c0.3,0,0.6-0.3,0.6-0.6V3.1c0-0.3-0.3-0.6-0.6-0.6H3.1C2.7,2.4,2.4,2.7,2.4,3
	c0,0,0,0,0,0.1v2.4C2.4,5.8,2.7,6.1,3.1,6.1C3,6.1,3,6.1,3.1,6.1z M3.7,3.7h1.2v1.2H3.7V3.7z"/>
</svg>
