<svg xmlns="http://www.w3.org/2000/svg" width="29" height="29" viewBox="0 0 29 29"><defs><style>.a{fill:#fff;stroke:#b0bec5;}.b{fill:#33475b;}</style></defs><g transform="translate(-70.962 0.025)"><circle class="a" cx="14" cy="14" r="14" transform="translate(71.462 0.475)"/><g transform="translate(79.081 9.469)"><path class="b" d="M39.288,35.393a5.806,5.806,0,0,1-1.672.458,2.918,2.918,0,0,0,1.28-1.61,5.826,5.826,0,0,1-1.848.706A2.913,2.913,0,0,0,32.089,37.6a8.261,8.261,0,0,1-6-3.041,2.913,2.913,0,0,0,.9,3.886,2.89,2.89,0,0,1-1.318-.364c0,.012,0,.025,0,.037a2.912,2.912,0,0,0,2.335,2.853,2.922,2.922,0,0,1-1.314.05,2.913,2.913,0,0,0,2.719,2.021,5.875,5.875,0,0,1-4.309,1.2,8.276,8.276,0,0,0,12.741-6.973q0-.189-.008-.376a5.9,5.9,0,0,0,1.452-1.506Z" transform="translate(-25.103 -34.028)"/></g></g></svg>